<svg width="1440" height="900" viewBox="0 0 1440 900" fill="none" xmlns="http://www.w3.org/2000/svg">
  <defs>
    <linearGradient id="bg" x1="220" y1="80" x2="1220" y2="820" gradientUnits="userSpaceOnUse">
      <stop stop-color="#F8FBFF"/>
      <stop offset="1" stop-color="#EAF1FB"/>
    </linearGradient>
    <linearGradient id="accent" x1="270" y1="186" x2="1032" y2="704" gradientUnits="userSpaceOnUse">
      <stop stop-color="#1F6BFF" stop-opacity="0.18"/>
      <stop offset="1" stop-color="#22C7A7" stop-opacity="0.1"/>
    </linearGradient>
    <filter id="shadow" x="140" y="95" width="1160" height="720" filterUnits="userSpaceOnUse" color-interpolation-filters="sRGB">
      <feFlood flood-opacity="0" result="BackgroundImageFix"/>
      <feColorMatrix in="SourceAlpha" type="matrix" values="0 0 0 0 0 0 0 0 0 0 0 0 0 0 0 0 0 0 127 0" result="hardAlpha"/>
      <feOffset dy="20"/>
      <feGaussianBlur stdDeviation="24"/>
      <feColorMatrix type="matrix" values="0 0 0 0 0.0666667 0 0 0 0 0.117647 0 0 0 0 0.243137 0 0 0 0.12 0"/>
      <feBlend mode="normal" in2="BackgroundImageFix" result="effect1_dropShadow_1_2"/>
      <feBlend mode="normal" in="SourceGraphic" in2="effect1_dropShadow_1_2" result="shape"/>
    </filter>
  </defs>
  <rect width="1440" height="900" fill="url(#bg)"/>
  <circle cx="253" cy="126" r="170" fill="#1F6BFF" fill-opacity="0.06"/>
  <circle cx="1220" cy="714" r="220" fill="#22C7A7" fill-opacity="0.08"/>
  <g filter="url(#shadow)">
    <rect x="188" y="143" width="1064" height="624" rx="32" fill="white"/>
    <rect x="188" y="143" width="1064" height="624" rx="32" fill="url(#accent)"/>
  </g>
  <rect x="226" y="181" width="998" height="56" rx="18" fill="#F4F7FC"/>
  <rect x="252" y="200" width="136" height="18" rx="9" fill="#D7E3FF"/>
  <rect x="408" y="196" width="420" height="26" rx="13" fill="#DCE7F7"/>
  <rect x="226" y="267" width="436" height="270" rx="24" fill="#FFFFFF" stroke="#E3EAF5"/>
  <rect x="690" y="267" width="534" height="270" rx="24" fill="#FFFFFF" stroke="#E3EAF5"/>
  <rect x="226" y="563" width="640" height="160" rx="24" fill="#FFFFFF" stroke="#E3EAF5"/>
  <rect x="892" y="563" width="332" height="160" rx="24" fill="#FFFFFF" stroke="#E3EAF5"/>

  <text x="252" y="326" fill="#1B2A41" font-family="Inter, Arial, sans-serif" font-size="18" font-weight="700">Room inputs</text>
  <text x="714" y="326" fill="#1B2A41" font-family="Inter, Arial, sans-serif" font-size="18" font-weight="700">Results</text>
  <text x="252" y="608" fill="#1B2A41" font-family="Inter, Arial, sans-serif" font-size="18" font-weight="700">Shareable summary</text>
  <text x="916" y="608" fill="#1B2A41" font-family="Inter, Arial, sans-serif" font-size="18" font-weight="700">Use cases</text>

  <rect x="252" y="352" width="176" height="68" rx="16" fill="#F7F9FD"/>
  <rect x="444" y="352" width="176" height="68" rx="16" fill="#F7F9FD"/>
  <rect x="252" y="436" width="176" height="68" rx="16" fill="#F7F9FD"/>
  <rect x="444" y="436" width="176" height="68" rx="16" fill="#F7F9FD"/>
  <rect x="252" y="520" width="368" height="0" rx="0" fill="#F7F9FD"/>

  <text x="270" y="378" fill="#5A6B84" font-family="Inter, Arial, sans-serif" font-size="13">Length (m)</text>
  <text x="462" y="378" fill="#5A6B84" font-family="Inter, Arial, sans-serif" font-size="13">Width (m)</text>
  <text x="270" y="462" fill="#5A6B84" font-family="Inter, Arial, sans-serif" font-size="13">Wall height (m)</text>
  <text x="462" y="462" fill="#5A6B84" font-family="Inter, Arial, sans-serif" font-size="13">Waste (%)</text>
  <text x="270" y="404" fill="#0F213B" font-family="Inter, Arial, sans-serif" font-size="26" font-weight="700">5.2</text>
  <text x="462" y="404" fill="#0F213B" font-family="Inter, Arial, sans-serif" font-size="26" font-weight="700">3.8</text>
  <text x="270" y="488" fill="#0F213B" font-family="Inter, Arial, sans-serif" font-size="26" font-weight="700">2.7</text>
  <text x="462" y="488" fill="#0F213B" font-family="Inter, Arial, sans-serif" font-size="26" font-weight="700">8</text>

  <rect x="714" y="352" width="232" height="70" rx="18" fill="#F7F9FD"/>
  <rect x="962" y="352" width="232" height="70" rx="18" fill="#F7F9FD"/>
  <rect x="714" y="438" width="232" height="70" rx="18" fill="#F7F9FD"/>
  <rect x="962" y="438" width="232" height="70" rx="18" fill="#F7F9FD"/>
  <text x="734" y="378" fill="#5A6B84" font-family="Inter, Arial, sans-serif" font-size="13">Floor area</text>
  <text x="982" y="378" fill="#5A6B84" font-family="Inter, Arial, sans-serif" font-size="13">Perimeter</text>
  <text x="734" y="464" fill="#5A6B84" font-family="Inter, Arial, sans-serif" font-size="13">Flooring needed</text>
  <text x="982" y="464" fill="#5A6B84" font-family="Inter, Arial, sans-serif" font-size="13">Paint estimate</text>
  <text x="734" y="409" fill="#0F213B" font-family="Inter, Arial, sans-serif" font-size="30" font-weight="700">19.76 m²</text>
  <text x="982" y="409" fill="#0F213B" font-family="Inter, Arial, sans-serif" font-size="30" font-weight="700">18 m</text>
  <text x="734" y="495" fill="#0F213B" font-family="Inter, Arial, sans-serif" font-size="30" font-weight="700">21.34 m²</text>
  <text x="982" y="495" fill="#0F213B" font-family="Inter, Arial, sans-serif" font-size="30" font-weight="700">4.86 L</text>

  <rect x="252" y="634" width="586" height="64" rx="16" fill="#0F172A"/>
  <text x="276" y="660" fill="#E2E8F0" font-family="'SFMono-Regular', monospace" font-size="14">Room: 19.76 m² (212.69 ft²)</text>
  <text x="276" y="682" fill="#E2E8F0" font-family="'SFMono-Regular', monospace" font-size="14">Flooring with 8% waste: 21.34 m²</text>

  <text x="916" y="646" fill="#4B5B72" font-family="Inter, Arial, sans-serif" font-size="15">• quick renovation planning</text>
  <text x="916" y="674" fill="#4B5B72" font-family="Inter, Arial, sans-serif" font-size="15">• metric / imperial switching</text>
  <text x="916" y="702" fill="#4B5B72" font-family="Inter, Arial, sans-serif" font-size="15">• clean static web deployment</text>

  <text x="226" y="106" fill="#1B2A41" font-family="Inter, Arial, sans-serif" font-size="40" font-weight="800">Room Measure Kit</text>
  <text x="226" y="128" fill="#5A6B84" font-family="Inter, Arial, sans-serif" font-size="17">Preview card for the room area, flooring, and paint estimator UI.</text>
</svg>
